{
	"asset":{
		"generator":"Khronos glTF Blender I/O v5.2.40",
		"version":"2.0"
	},
	"extensionsUsed":[
		"EXT_texture_webp"
	],
	"extensionsRequired":[
		"EXT_texture_webp"
	],
	"scene":0,
	"scenes":[
		{
			"name":"Scene",
			"nodes":[
				6
			]
		}
	],
	"nodes":[
		{
			"mesh":0,
			"name":"truss"
		},
		{
			"mesh":1,
			"name":"wings"
		},
		{
			"children":[
				0,
				1
			],
			"name":"arrays",
			"translation":[
				0,
				-31,
				0
			]
		},
		{
			"mesh":2,
			"name":"core"
		},
		{
			"mesh":3,
			"name":"dock",
			"translation":[
				0,
				28,
				0
			]
		},
		{
			"mesh":4,
			"name":"habitat"
		},
		{
			"children":[
				2,
				3,
				4,
				5
			],
			"name":"station"
		}
	],
	"materials":[
		{
			"doubleSided":true,
			"name":"metal",
			"normalTexture":{
				"index":0
			},
			"pbrMetallicRoughness":{
				"baseColorTexture":{
					"index":1
				},
				"metallicRoughnessTexture":{
					"index":2
				}
			}
		},
		{
			"doubleSided":true,
			"name":"solar",
			"normalTexture":{
				"index":3
			},
			"pbrMetallicRoughness":{
				"baseColorTexture":{
					"index":4
				},
				"metallicRoughnessTexture":{
					"index":5
				}
			}
		},
		{
			"doubleSided":true,
			"name":"hull",
			"normalTexture":{
				"index":6
			},
			"pbrMetallicRoughness":{
				"baseColorTexture":{
					"index":7
				},
				"metallicRoughnessTexture":{
					"index":8
				}
			}
		},
		{
			"doubleSided":true,
			"name":"foil-gold",
			"normalTexture":{
				"index":9
			},
			"pbrMetallicRoughness":{
				"baseColorTexture":{
					"index":10
				},
				"metallicRoughnessTexture":{
					"index":11
				}
			}
		},
		{
			"doubleSided":true,
			"name":"foil-silver",
			"normalTexture":{
				"index":12
			},
			"pbrMetallicRoughness":{
				"baseColorTexture":{
					"index":13
				},
				"metallicRoughnessTexture":{
					"index":14
				}
			}
		},
		{
			"doubleSided":true,
			"name":"radiator",
			"normalTexture":{
				"index":15
			},
			"pbrMetallicRoughness":{
				"baseColorTexture":{
					"index":16
				},
				"metallicRoughnessTexture":{
					"index":17
				}
			}
		},
		{
			"doubleSided":true,
			"emissiveFactor":[
				1,
				1,
				1
			],
			"emissiveTexture":{
				"index":18
			},
			"name":"window",
			"normalTexture":{
				"index":19
			},
			"pbrMetallicRoughness":{
				"baseColorTexture":{
					"index":20
				},
				"metallicRoughnessTexture":{
					"index":21
				}
			}
		}
	],
	"meshes":[
		{
			"name":"truss",
			"primitives":[
				{
					"attributes":{
						"POSITION":0,
						"NORMAL":1,
						"TEXCOORD_0":2
					},
					"indices":3,
					"material":0
				}
			]
		},
		{
			"name":"wings",
			"primitives":[
				{
					"attributes":{
						"POSITION":4,
						"NORMAL":5,
						"TEXCOORD_0":6
					},
					"indices":7,
					"material":0
				},
				{
					"attributes":{
						"POSITION":8,
						"NORMAL":9,
						"TEXCOORD_0":10
					},
					"indices":11,
					"material":1
				}
			]
		},
		{
			"name":"core",
			"primitives":[
				{
					"attributes":{
						"POSITION":12,
						"NORMAL":13,
						"TEXCOORD_0":14
					},
					"indices":15,
					"material":2
				},
				{
					"attributes":{
						"POSITION":16,
						"NORMAL":17,
						"TEXCOORD_0":18
					},
					"indices":19,
					"material":3
				},
				{
					"attributes":{
						"POSITION":20,
						"NORMAL":21,
						"TEXCOORD_0":22
					},
					"indices":23,
					"material":4
				},
				{
					"attributes":{
						"POSITION":24,
						"NORMAL":25,
						"TEXCOORD_0":26
					},
					"indices":27,
					"material":0
				},
				{
					"attributes":{
						"POSITION":28,
						"NORMAL":29,
						"TEXCOORD_0":30
					},
					"indices":31,
					"material":5
				},
				{
					"attributes":{
						"POSITION":32,
						"NORMAL":33,
						"TEXCOORD_0":34
					},
					"indices":35,
					"material":6
				}
			]
		},
		{
			"name":"dock",
			"primitives":[
				{
					"attributes":{
						"POSITION":36,
						"NORMAL":37,
						"TEXCOORD_0":38
					},
					"indices":39,
					"material":2
				},
				{
					"attributes":{
						"POSITION":40,
						"NORMAL":41,
						"TEXCOORD_0":42
					},
					"indices":43,
					"material":0
				}
			]
		},
		{
			"name":"habitat",
			"primitives":[
				{
					"attributes":{
						"POSITION":44,
						"NORMAL":45,
						"TEXCOORD_0":46
					},
					"indices":47,
					"material":2
				},
				{
					"attributes":{
						"POSITION":48,
						"NORMAL":49,
						"TEXCOORD_0":50
					},
					"indices":51,
					"material":3
				},
				{
					"attributes":{
						"POSITION":52,
						"NORMAL":53,
						"TEXCOORD_0":54
					},
					"indices":55,
					"material":0
				},
				{
					"attributes":{
						"POSITION":56,
						"NORMAL":57,
						"TEXCOORD_0":58
					},
					"indices":59,
					"material":6
				}
			]
		}
	],
	"textures":[
		{
			"extensions":{
				"EXT_texture_webp":{
					"source":0
				}
			},
			"sampler":0
		},
		{
			"extensions":{
				"EXT_texture_webp":{
					"source":1
				}
			},
			"sampler":0
		},
		{
			"extensions":{
				"EXT_texture_webp":{
					"source":2
				}
			},
			"sampler":0
		},
		{
			"extensions":{
				"EXT_texture_webp":{
					"source":3
				}
			},
			"sampler":0
		},
		{
			"extensions":{
				"EXT_texture_webp":{
					"source":4
				}
			},
			"sampler":0
		},
		{
			"extensions":{
				"EXT_texture_webp":{
					"source":5
				}
			},
			"sampler":0
		},
		{
			"extensions":{
				"EXT_texture_webp":{
					"source":6
				}
			},
			"sampler":0
		},
		{
			"extensions":{
				"EXT_texture_webp":{
					"source":7
				}
			},
			"sampler":0
		},
		{
			"extensions":{
				"EXT_texture_webp":{
					"source":8
				}
			},
			"sampler":0
		},
		{
			"extensions":{
				"EXT_texture_webp":{
					"source":9
				}
			},
			"sampler":0
		},
		{
			"extensions":{
				"EXT_texture_webp":{
					"source":10
				}
			},
			"sampler":0
		},
		{
			"extensions":{
				"EXT_texture_webp":{
					"source":11
				}
			},
			"sampler":0
		},
		{
			"extensions":{
				"EXT_texture_webp":{
					"source":12
				}
			},
			"sampler":0
		},
		{
			"extensions":{
				"EXT_texture_webp":{
					"source":13
				}
			},
			"sampler":0
		},
		{
			"extensions":{
				"EXT_texture_webp":{
					"source":14
				}
			},
			"sampler":0
		},
		{
			"extensions":{
				"EXT_texture_webp":{
					"source":15
				}
			},
			"sampler":0
		},
		{
			"extensions":{
				"EXT_texture_webp":{
					"source":16
				}
			},
			"sampler":0
		},
		{
			"extensions":{
				"EXT_texture_webp":{
					"source":17
				}
			},
			"sampler":0
		},
		{
			"extensions":{
				"EXT_texture_webp":{
					"source":18
				}
			},
			"sampler":0
		},
		{
			"extensions":{
				"EXT_texture_webp":{
					"source":19
				}
			},
			"sampler":0
		},
		{
			"extensions":{
				"EXT_texture_webp":{
					"source":20
				}
			},
			"sampler":0
		},
		{
			"extensions":{
				"EXT_texture_webp":{
					"source":21
				}
			},
			"sampler":0
		}
	],
	"images":[
		{
			"mimeType":"image/webp",
			"name":"metal-normal",
			"uri":"station-textures/metal-normal.webp"
		},
		{
			"mimeType":"image/webp",
			"name":"metal-colour",
			"uri":"station-textures/metal-colour.webp"
		},
		{
			"mimeType":"image/webp",
			"name":"metal-orm",
			"uri":"station-textures/metal-orm.webp"
		},
		{
			"mimeType":"image/webp",
			"name":"solar-normal",
			"uri":"station-textures/solar-normal.webp"
		},
		{
			"mimeType":"image/webp",
			"name":"solar-colour",
			"uri":"station-textures/solar-colour.webp"
		},
		{
			"mimeType":"image/webp",
			"name":"solar-orm",
			"uri":"station-textures/solar-orm.webp"
		},
		{
			"mimeType":"image/webp",
			"name":"hull-normal",
			"uri":"station-textures/hull-normal.webp"
		},
		{
			"mimeType":"image/webp",
			"name":"hull-colour",
			"uri":"station-textures/hull-colour.webp"
		},
		{
			"mimeType":"image/webp",
			"name":"hull-orm",
			"uri":"station-textures/hull-orm.webp"
		},
		{
			"mimeType":"image/webp",
			"name":"foil-gold-normal",
			"uri":"station-textures/foil-gold-normal.webp"
		},
		{
			"mimeType":"image/webp",
			"name":"foil-gold-colour",
			"uri":"station-textures/foil-gold-colour.webp"
		},
		{
			"mimeType":"image/webp",
			"name":"foil-gold-orm",
			"uri":"station-textures/foil-gold-orm.webp"
		},
		{
			"mimeType":"image/webp",
			"name":"foil-silver-normal",
			"uri":"station-textures/foil-silver-normal.webp"
		},
		{
			"mimeType":"image/webp",
			"name":"foil-silver-colour",
			"uri":"station-textures/foil-silver-colour.webp"
		},
		{
			"mimeType":"image/webp",
			"name":"foil-silver-orm",
			"uri":"station-textures/foil-silver-orm.webp"
		},
		{
			"mimeType":"image/webp",
			"name":"radiator-normal",
			"uri":"station-textures/radiator-normal.webp"
		},
		{
			"mimeType":"image/webp",
			"name":"radiator-colour",
			"uri":"station-textures/radiator-colour.webp"
		},
		{
			"mimeType":"image/webp",
			"name":"radiator-orm",
			"uri":"station-textures/radiator-orm.webp"
		},
		{
			"mimeType":"image/webp",
			"name":"window-emissive",
			"uri":"station-textures/window-emissive.webp"
		},
		{
			"mimeType":"image/webp",
			"name":"window-normal",
			"uri":"station-textures/window-normal.webp"
		},
		{
			"mimeType":"image/webp",
			"name":"window-colour",
			"uri":"station-textures/window-colour.webp"
		},
		{
			"mimeType":"image/webp",
			"name":"window-orm",
			"uri":"station-textures/window-orm.webp"
		}
	],
	"accessors":[
		{
			"bufferView":0,
			"componentType":5126,
			"count":5308,
			"max":[
				52.060001373291016,
				1.1000001430511475,
				1.100000023841858
			],
			"min":[
				-52.060001373291016,
				-1.1000001430511475,
				-1.100000023841858
			],
			"type":"VEC3"
		},
		{
			"bufferView":1,
			"componentType":5126,
			"count":5308,
			"type":"VEC3"
		},
		{
			"bufferView":2,
			"componentType":5126,
			"count":5308,
			"type":"VEC2"
		},
		{
			"bufferView":3,
			"componentType":5123,
			"count":8256,
			"type":"SCALAR"
		},
		{
			"bufferView":4,
			"componentType":5126,
			"count":480,
			"max":[
				52.92499923706055,
				0.15000000596046448,
				6.125
			],
			"min":[
				-52.92499923706055,
				-0.15000000596046448,
				-6.125
			],
			"type":"VEC3"
		},
		{
			"bufferView":5,
			"componentType":5126,
			"count":480,
			"type":"VEC3"
		},
		{
			"bufferView":6,
			"componentType":5126,
			"count":480,
			"type":"VEC2"
		},
		{
			"bufferView":7,
			"componentType":5123,
			"count":720,
			"type":"SCALAR"
		},
		{
			"bufferView":8,
			"componentType":5126,
			"count":192,
			"max":[
				52.70000076293945,
				0.029999999329447746,
				5.949999809265137
			],
			"min":[
				-52.70000076293945,
				-0.029999999329447746,
				-5.949999809265137
			],
			"type":"VEC3"
		},
		{
			"bufferView":9,
			"componentType":5126,
			"count":192,
			"type":"VEC3"
		},
		{
			"bufferView":10,
			"componentType":5126,
			"count":192,
			"type":"VEC2"
		},
		{
			"bufferView":11,
			"componentType":5123,
			"count":288,
			"type":"SCALAR"
		},
		{
			"bufferView":12,
			"componentType":5126,
			"count":3036,
			"max":[
				6.599999904632568,
				42.20000076293945,
				8.300000190734863
			],
			"min":[
				-6.599999904632568,
				-39,
				-6.599999904632568
			],
			"type":"VEC3"
		},
		{
			"bufferView":13,
			"componentType":5126,
			"count":3036,
			"type":"VEC3"
		},
		{
			"bufferView":14,
			"componentType":5126,
			"count":3036,
			"type":"VEC2"
		},
		{
			"bufferView":15,
			"componentType":5123,
			"count":7608,
			"type":"SCALAR"
		},
		{
			"bufferView":16,
			"componentType":5126,
			"count":438,
			"max":[
				6.849999904632568,
				17.399999618530273,
				9.000000953674316
			],
			"min":[
				-6.849999904632568,
				-23.75,
				-6.849999904632568
			],
			"type":"VEC3"
		},
		{
			"bufferView":17,
			"componentType":5126,
			"count":438,
			"type":"VEC3"
		},
		{
			"bufferView":18,
			"componentType":5126,
			"count":438,
			"type":"VEC2"
		},
		{
			"bufferView":19,
			"componentType":5123,
			"count":1272,
			"type":"SCALAR"
		},
		{
			"bufferView":20,
			"componentType":5126,
			"count":162,
			"max":[
				4.599999904632568,
				23.75,
				4.599999904632568
			],
			"min":[
				-4.599999904632568,
				14.25,
				-4.599999904632568
			],
			"type":"VEC3"
		},
		{
			"bufferView":21,
			"componentType":5126,
			"count":162,
			"type":"VEC3"
		},
		{
			"bufferView":22,
			"componentType":5126,
			"count":162,
			"type":"VEC2"
		},
		{
			"bufferView":23,
			"componentType":5123,
			"count":468,
			"type":"SCALAR"
		},
		{
			"bufferView":24,
			"componentType":5126,
			"count":4738,
			"max":[
				23.44999885559082,
				43.5,
				12.199999809265137
			],
			"min":[
				-23.44999885559082,
				-36.25,
				-7.099999904632568
			],
			"type":"VEC3"
		},
		{
			"bufferView":25,
			"componentType":5126,
			"count":4738,
			"type":"VEC3"
		},
		{
			"bufferView":26,
			"componentType":5126,
			"count":4738,
			"type":"VEC2"
		},
		{
			"bufferView":27,
			"componentType":5123,
			"count":11460,
			"type":"SCALAR"
		},
		{
			"bufferView":28,
			"componentType":5126,
			"count":144,
			"max":[
				23.19999885559082,
				13.600000381469727,
				0.05999999865889549
			],
			"min":[
				-23.19999885559082,
				6.400000095367432,
				-0.05999999865889549
			],
			"type":"VEC3"
		},
		{
			"bufferView":29,
			"componentType":5126,
			"count":144,
			"type":"VEC3"
		},
		{
			"bufferView":30,
			"componentType":5126,
			"count":144,
			"type":"VEC2"
		},
		{
			"bufferView":31,
			"componentType":5123,
			"count":216,
			"type":"SCALAR"
		},
		{
			"bufferView":32,
			"componentType":5126,
			"count":2278,
			"max":[
				6.659999847412109,
				25.700000762939453,
				6.659999847412109
			],
			"min":[
				-6.659999847412109,
				-25.700000762939453,
				-6.659999847412109
			],
			"type":"VEC3"
		},
		{
			"bufferView":33,
			"componentType":5126,
			"count":2278,
			"type":"VEC3"
		},
		{
			"bufferView":34,
			"componentType":5126,
			"count":2278,
			"type":"VEC2"
		},
		{
			"bufferView":35,
			"componentType":5123,
			"count":3624,
			"type":"SCALAR"
		},
		{
			"bufferView":36,
			"componentType":5126,
			"count":3370,
			"max":[
				13.699999809265137,
				1.100000023841858,
				13.699999809265137
			],
			"min":[
				-13.699999809265137,
				-1.100000023841858,
				-13.699999809265137
			],
			"type":"VEC3"
		},
		{
			"bufferView":37,
			"componentType":5126,
			"count":3370,
			"type":"VEC3"
		},
		{
			"bufferView":38,
			"componentType":5126,
			"count":3370,
			"type":"VEC2"
		},
		{
			"bufferView":39,
			"componentType":5123,
			"count":17184,
			"type":"SCALAR"
		},
		{
			"bufferView":40,
			"componentType":5126,
			"count":795,
			"max":[
				13.299999237060547,
				0.9000000357627869,
				13.299999237060547
			],
			"min":[
				-13.299999237060547,
				-0.9000000357627869,
				-13.299999237060547
			],
			"type":"VEC3"
		},
		{
			"bufferView":41,
			"componentType":5126,
			"count":795,
			"type":"VEC3"
		},
		{
			"bufferView":42,
			"componentType":5126,
			"count":795,
			"type":"VEC2"
		},
		{
			"bufferView":43,
			"componentType":5123,
			"count":2160,
			"type":"SCALAR"
		},
		{
			"bufferView":44,
			"componentType":5126,
			"count":5995,
			"max":[
				32.54999923706055,
				2.549999952316284,
				32.54999923706055
			],
			"min":[
				-32.54999923706055,
				-2.549999952316284,
				-32.54999923706055
			],
			"type":"VEC3"
		},
		{
			"bufferView":45,
			"componentType":5126,
			"count":5995,
			"type":"VEC3"
		},
		{
			"bufferView":46,
			"componentType":5126,
			"count":5995,
			"type":"VEC2"
		},
		{
			"bufferView":47,
			"componentType":5123,
			"count":33336,
			"type":"SCALAR"
		},
		{
			"bufferView":48,
			"componentType":5126,
			"count":192,
			"max":[
				27.88584327697754,
				1.600000023841858,
				27.88584327697754
			],
			"min":[
				-27.885845184326172,
				-1.600000023841858,
				-27.885845184326172
			],
			"type":"VEC3"
		},
		{
			"bufferView":49,
			"componentType":5126,
			"count":192,
			"type":"VEC3"
		},
		{
			"bufferView":50,
			"componentType":5126,
			"count":192,
			"type":"VEC2"
		},
		{
			"bufferView":51,
			"componentType":5123,
			"count":288,
			"type":"SCALAR"
		},
		{
			"bufferView":52,
			"componentType":5126,
			"count":4036,
			"max":[
				32.95000076293945,
				2.950000047683716,
				32.95000076293945
			],
			"min":[
				-32.95000076293945,
				-2.950000047683716,
				-32.95000076293945
			],
			"type":"VEC3"
		},
		{
			"bufferView":53,
			"componentType":5126,
			"count":4036,
			"type":"VEC3"
		},
		{
			"bufferView":54,
			"componentType":5126,
			"count":4036,
			"type":"VEC2"
		},
		{
			"bufferView":55,
			"componentType":5123,
			"count":11304,
			"type":"SCALAR"
		},
		{
			"bufferView":56,
			"componentType":5126,
			"count":6912,
			"max":[
				32.17948913574219,
				1.7915658950805664,
				32.17948913574219
			],
			"min":[
				-32.17948913574219,
				-1.7915658950805664,
				-32.17948913574219
			],
			"type":"VEC3"
		},
		{
			"bufferView":57,
			"componentType":5126,
			"count":6912,
			"type":"VEC3"
		},
		{
			"bufferView":58,
			"componentType":5126,
			"count":6912,
			"type":"VEC2"
		},
		{
			"bufferView":59,
			"componentType":5123,
			"count":10368,
			"type":"SCALAR"
		}
	],
	"bufferViews":[
		{
			"buffer":0,
			"byteLength":63696,
			"byteOffset":0,
			"target":34962
		},
		{
			"buffer":0,
			"byteLength":63696,
			"byteOffset":63696,
			"target":34962
		},
		{
			"buffer":0,
			"byteLength":42464,
			"byteOffset":127392,
			"target":34962
		},
		{
			"buffer":0,
			"byteLength":16512,
			"byteOffset":169856,
			"target":34963
		},
		{
			"buffer":0,
			"byteLength":5760,
			"byteOffset":186368,
			"target":34962
		},
		{
			"buffer":0,
			"byteLength":5760,
			"byteOffset":192128,
			"target":34962
		},
		{
			"buffer":0,
			"byteLength":3840,
			"byteOffset":197888,
			"target":34962
		},
		{
			"buffer":0,
			"byteLength":1440,
			"byteOffset":201728,
			"target":34963
		},
		{
			"buffer":0,
			"byteLength":2304,
			"byteOffset":203168,
			"target":34962
		},
		{
			"buffer":0,
			"byteLength":2304,
			"byteOffset":205472,
			"target":34962
		},
		{
			"buffer":0,
			"byteLength":1536,
			"byteOffset":207776,
			"target":34962
		},
		{
			"buffer":0,
			"byteLength":576,
			"byteOffset":209312,
			"target":34963
		},
		{
			"buffer":0,
			"byteLength":36432,
			"byteOffset":209888,
			"target":34962
		},
		{
			"buffer":0,
			"byteLength":36432,
			"byteOffset":246320,
			"target":34962
		},
		{
			"buffer":0,
			"byteLength":24288,
			"byteOffset":282752,
			"target":34962
		},
		{
			"buffer":0,
			"byteLength":15216,
			"byteOffset":307040,
			"target":34963
		},
		{
			"buffer":0,
			"byteLength":5256,
			"byteOffset":322256,
			"target":34962
		},
		{
			"buffer":0,
			"byteLength":5256,
			"byteOffset":327512,
			"target":34962
		},
		{
			"buffer":0,
			"byteLength":3504,
			"byteOffset":332768,
			"target":34962
		},
		{
			"buffer":0,
			"byteLength":2544,
			"byteOffset":336272,
			"target":34963
		},
		{
			"buffer":0,
			"byteLength":1944,
			"byteOffset":338816,
			"target":34962
		},
		{
			"buffer":0,
			"byteLength":1944,
			"byteOffset":340760,
			"target":34962
		},
		{
			"buffer":0,
			"byteLength":1296,
			"byteOffset":342704,
			"target":34962
		},
		{
			"buffer":0,
			"byteLength":936,
			"byteOffset":344000,
			"target":34963
		},
		{
			"buffer":0,
			"byteLength":56856,
			"byteOffset":344936,
			"target":34962
		},
		{
			"buffer":0,
			"byteLength":56856,
			"byteOffset":401792,
			"target":34962
		},
		{
			"buffer":0,
			"byteLength":37904,
			"byteOffset":458648,
			"target":34962
		},
		{
			"buffer":0,
			"byteLength":22920,
			"byteOffset":496552,
			"target":34963
		},
		{
			"buffer":0,
			"byteLength":1728,
			"byteOffset":519472,
			"target":34962
		},
		{
			"buffer":0,
			"byteLength":1728,
			"byteOffset":521200,
			"target":34962
		},
		{
			"buffer":0,
			"byteLength":1152,
			"byteOffset":522928,
			"target":34962
		},
		{
			"buffer":0,
			"byteLength":432,
			"byteOffset":524080,
			"target":34963
		},
		{
			"buffer":0,
			"byteLength":27336,
			"byteOffset":524512,
			"target":34962
		},
		{
			"buffer":0,
			"byteLength":27336,
			"byteOffset":551848,
			"target":34962
		},
		{
			"buffer":0,
			"byteLength":18224,
			"byteOffset":579184,
			"target":34962
		},
		{
			"buffer":0,
			"byteLength":7248,
			"byteOffset":597408,
			"target":34963
		},
		{
			"buffer":0,
			"byteLength":40440,
			"byteOffset":604656,
			"target":34962
		},
		{
			"buffer":0,
			"byteLength":40440,
			"byteOffset":645096,
			"target":34962
		},
		{
			"buffer":0,
			"byteLength":26960,
			"byteOffset":685536,
			"target":34962
		},
		{
			"buffer":0,
			"byteLength":34368,
			"byteOffset":712496,
			"target":34963
		},
		{
			"buffer":0,
			"byteLength":9540,
			"byteOffset":746864,
			"target":34962
		},
		{
			"buffer":0,
			"byteLength":9540,
			"byteOffset":756404,
			"target":34962
		},
		{
			"buffer":0,
			"byteLength":6360,
			"byteOffset":765944,
			"target":34962
		},
		{
			"buffer":0,
			"byteLength":4320,
			"byteOffset":772304,
			"target":34963
		},
		{
			"buffer":0,
			"byteLength":71940,
			"byteOffset":776624,
			"target":34962
		},
		{
			"buffer":0,
			"byteLength":71940,
			"byteOffset":848564,
			"target":34962
		},
		{
			"buffer":0,
			"byteLength":47960,
			"byteOffset":920504,
			"target":34962
		},
		{
			"buffer":0,
			"byteLength":66672,
			"byteOffset":968464,
			"target":34963
		},
		{
			"buffer":0,
			"byteLength":2304,
			"byteOffset":1035136,
			"target":34962
		},
		{
			"buffer":0,
			"byteLength":2304,
			"byteOffset":1037440,
			"target":34962
		},
		{
			"buffer":0,
			"byteLength":1536,
			"byteOffset":1039744,
			"target":34962
		},
		{
			"buffer":0,
			"byteLength":576,
			"byteOffset":1041280,
			"target":34963
		},
		{
			"buffer":0,
			"byteLength":48432,
			"byteOffset":1041856,
			"target":34962
		},
		{
			"buffer":0,
			"byteLength":48432,
			"byteOffset":1090288,
			"target":34962
		},
		{
			"buffer":0,
			"byteLength":32288,
			"byteOffset":1138720,
			"target":34962
		},
		{
			"buffer":0,
			"byteLength":22608,
			"byteOffset":1171008,
			"target":34963
		},
		{
			"buffer":0,
			"byteLength":82944,
			"byteOffset":1193616,
			"target":34962
		},
		{
			"buffer":0,
			"byteLength":82944,
			"byteOffset":1276560,
			"target":34962
		},
		{
			"buffer":0,
			"byteLength":55296,
			"byteOffset":1359504,
			"target":34962
		},
		{
			"buffer":0,
			"byteLength":20736,
			"byteOffset":1414800,
			"target":34963
		}
	],
	"samplers":[
		{
			"magFilter":9729,
			"minFilter":9987
		}
	],
	"buffers":[
		{
			"byteLength":1435536,
			"uri":"station.bin"
		}
	]
}
